<svg version="1.2" xmlns="http://www.w3.org/2000/svg" viewBox="0 0 1179 533" width="1179" height="533">
	<title>file</title>
	<style>
		.s0 { fill: #d7aefe } 
	</style>
	<path id="Path 0" class="s0" d="m40 14.5c6.3 0.3 13.1 0.7 15 0.9 1.9 0.2 5.5 0.6 8 1 2.5 0.4 7.9 1.1 12 1.6 4.1 0.5 8.4 0.9 9.5 0.9 1.1 0 3.6 0.3 5.5 0.6 1.9 0.4 5.1 0.8 7 0.9 1.9 0.2 5.8 0.9 8.5 1.5 2.8 0.7 5.5 1.1 6 1 0.5-0.1 2.1 0.1 3.5 0.5 1.4 0.3 5 0.8 8 1 3 0.2 5.5 0.5 5.5 0.6 0 0.1 0.9 0.4 2 0.5 1.1 0.2 6.7 1.1 12.5 2 5.8 0.9 11.6 1.8 13 2.1 1.4 0.3 4.8 0.7 7.5 0.8 2.8 0.1 5.4 0.6 6 0.9 0.6 0.3 4.8 1.3 9.5 2.1 4.7 0.8 8.8 1.3 9.3 1.1 0.4-0.3 1.3-0.1 1.9 0.4 0.7 0.4 5.4 1.6 10.3 2.4 4.9 0.9 10.6 1.7 12.5 1.7 1.9 0 3.9 0.3 4.3 0.7 0.5 0.5 1.6 0.9 2.5 1.1 1 0.2 3.7 0.5 6.2 0.8 2.5 0.3 5.4 0.9 6.5 1.4 1.1 0.5 9.2 2.3 18 4.1 8.8 1.7 16.9 3.3 18 3.5 1.1 0.1 3.8 0.7 6 1.3 2.2 0.5 5.1 1.2 6.5 1.5 1.4 0.2 6.4 1.4 11.2 2.5 4.9 1.2 10 2.1 11.5 2.1 1.6 0 4.3 0.6 6 1.5 1.8 0.8 4 1.3 4.8 1 0.8-0.3 1.5 0 1.5 0.5 0 0.5 1.2 1 2.7 1 1.6 0 4.6 0.7 6.8 1.4 2.2 0.8 5.4 1.7 7 2 1.6 0.3 5.3 1 8 1.6 2.7 0.6 7.9 2 11.5 3.1 3.6 1.1 7.9 2.2 9.5 2.4 1.6 0.3 6.8 1.6 11.5 2.9 4.7 1.4 8.8 2.3 9.3 2 0.4-0.2 1.9 0.2 3.4 1 1.6 0.7 8.9 2.8 16.3 4.6 7.4 1.7 14.3 3.6 15.2 4.1 1 0.5 2.7 0.9 3.8 0.9 1.1 0 4.4 0.9 7.2 1.9 2.9 1.1 11.8 3.8 19.8 6 8 2.3 15.6 4.4 17 4.7 1.4 0.3 3.6 0.8 5 1.1 1.4 0.3 4 1.1 5.7 1.9 1.8 0.8 4.2 1.4 5.3 1.4 1.1 0 2.8 0.4 3.7 0.9 1 0.5 3.6 1.4 5.8 2.1 2.2 0.8 4.7 1.4 5.5 1.5 0.8 0 1.9 0.4 2.5 0.7 0.6 0.3 3 1.2 5.5 1.8 2.5 0.7 5.2 1.4 6 1.5 0.8 0.1 2.9 0.8 4.5 1.4 1.6 0.7 4.8 1.5 7 1.8 2.2 0.2 4.5 0.8 5 1.2 0.5 0.5 2.6 1.3 4.5 2 1.9 0.6 4.6 1.4 6 1.7 1.4 0.3 3.6 0.8 5 1.1 1.4 0.2 3.1 0.7 3.7 0.9 0.7 0.2 1.6 0.5 2 0.5 0.5 0.1 2.8 0.9 5.3 1.9 2.5 0.9 6.3 2.1 8.5 2.5 2.2 0.4 4.5 1 5 1.4 0.5 0.5 6.4 2.3 13 4.1 6.6 1.8 12.9 3.4 14 3.6 1.1 0.1 2.9 0.5 4 0.8 1.1 0.2 2 0.5 2 0.6 0 0.1 0.7 0.3 1.5 0.6 0.8 0.2 4.9 1.3 9 2.5 4.1 1.1 10.2 2.8 13.5 3.6 3.3 0.8 6.7 1.6 7.5 1.7 0.8 0.2 2.2 0.6 3 0.8 0.8 0.3 3.7 1.1 6.5 1.7 2.7 0.6 6.6 1.4 8.5 1.6 1.9 0.3 4.6 0.9 6 1.4 1.4 0.6 6.3 1.7 11 2.6 4.7 0.9 8.7 1.4 9 1.1 0.3-0.3 1-0.2 1.5 0.3 0.5 0.5 4.4 1.2 8.5 1.5 4.1 0.3 8.6 0.9 10 1.2 1.4 0.3 3.6 0.8 5 0.9 1.4 0.2 7.2 0.8 13 1.4 5.8 0.5 15.7 1.9 22 3.1 6.3 1.2 13.3 2.9 15.5 3.6 2.2 0.8 5 1.4 6.2 1.4 1.3 0 2.5 0.3 2.7 0.8 0.2 0.4 3.2 1.6 6.7 2.7 3.5 1 6.9 2 7.4 2.1 0.5 0 3.1 1.1 5.7 2.2 2.7 1.2 5.6 2.2 6.5 2.2 1 0 2.7 0.6 3.8 1.5 1.1 0.8 2.9 1.5 4 1.5 1.1 0 2.9 0.7 4 1.5 1.1 0.9 2.8 1.5 3.7 1.5 1 0 1.8 0.4 1.8 1 0 0.6 1.7 1.4 3.7 1.9 2.1 0.6 11.4 4.8 20.8 9.4 9.4 4.6 24.4 12.7 33.5 17.9 9.1 5.2 23 13.7 31 18.8 8 5.1 21 13.8 29 19.4 8 5.5 21 15 29 21 8 6 21.2 16.4 29.5 23.1 8.2 6.7 22.6 18.9 32 27.1 9.4 8.1 29.4 27.2 44.6 42.4 15.2 15.1 32.8 33.4 39.1 40.5 6.3 7.1 15.9 18.4 21.3 25 5.4 6.6 14.6 18.3 20.3 26 5.8 7.7 11.1 15.5 11.9 17.3 0.7 1.7 1.3 5 1.3 7.2 0 2.2-0.6 5.5-1.4 7.3-0.7 1.7-3.3 5-5.7 7.3-3.2 3-5.8 4.4-9.7 5.2-3.9 0.9-140.1 1.2-552 1.2-484.6 0-547.3-0.2-552-1.5-2.9-0.8-6.4-2.7-7.8-4.3-1.5-1.5-3.7-4.4-5-6.5-2.3-3.6-2.4-4.4-2.8-29.9-0.2-14.5-0.7-27.3-1-28.6-0.3-1.2-0.2-2.4 0.4-2.7 0.6-0.3 1-6.7 1-16 0-11.7-0.3-15.5-1.3-15.5-0.9 0-0.9-0.2 0-0.8 1-0.5 1.2-15.5 1-68-0.1-37.1-0.4-67.5-0.7-67.7-0.3-0.2-0.5-1.2-0.5-2.2 0.1-1 0.4-2.2 0.7-2.8 0.3-0.6 0.5-18.3 0.4-39.5-0.2-21.2-0.6-39.5-0.9-40.8-0.4-1.2-0.3-2.4 0.3-2.7 0.6-0.3 1-6.5 0.9-15.8 0-10.5-0.4-15.4-1.2-15.9-0.9-0.6-0.9-0.8 0-0.8 1 0 1.3-12 1.2-56.8-0.1-48 0.1-57.2 1.3-60.2 0.9-1.9 2.8-4.8 4.4-6.4 1.6-1.6 4.2-3.5 5.9-4.3 2.2-1 5.9-1.2 14.5-0.8z"/>
</svg>